<svg xmlns="http://www.w3.org/2000/svg" viewBox="0 0 79.23 79.23"><defs><style>.cls-1{fill:#886dc4;}.cls-2{fill:#640787;}.cls-3{fill:#8004bf;}</style></defs><g id="Layer_2" data-name="Layer 2"><g id="Layer_1-2" data-name="Layer 1"><path class="cls-1" d="M58.15,33.44,33.44,58.15a2.93,2.93,0,0,1-4.12,0l-8.23-8.24a2.91,2.91,0,0,1,0-4.12l24.7-24.7a2.91,2.91,0,0,1,4.12,0l8.24,8.23A2.92,2.92,0,0,1,58.15,33.44Z"/><path class="cls-2" d="M45.79,21.09,33.44,33.44,45.79,45.79,58.15,33.44a2.92,2.92,0,0,0,0-4.12l-8.24-8.23A2.91,2.91,0,0,0,45.79,21.09Z"/><path class="cls-3" d="M6.67,39.62A8.72,8.72,0,0,0,5.31,50.13,8.69,8.69,0,0,0,2.55,64.32L14.91,76.68a8.75,8.75,0,0,0,12.35,0,8.6,8.6,0,0,0,1.85-2.75A8.71,8.71,0,0,0,39.62,60.21L19,39.62A8.75,8.75,0,0,0,6.67,39.62Z"/><path class="cls-3" d="M52,2.55a8.72,8.72,0,0,0-1.84,2.76A8.71,8.71,0,0,0,39.62,19L60.21,39.62A8.71,8.71,0,0,0,73.93,29.11a8.6,8.6,0,0,0,2.75-1.85,8.75,8.75,0,0,0,0-12.35L64.32,2.55A8.75,8.75,0,0,0,52,2.55Z"/></g></g></svg>