<svg xmlns="http://www.w3.org/2000/svg" viewBox="0 0 40.77 87.36"><defs><style>.cls-1{fill:#8004bf;}.cls-2{fill:#640787;}.cls-3{fill:#886dc4;}</style></defs><g id="Layer_2" data-name="Layer 2"><g id="Layer_1-2" data-name="Layer 1"><path class="cls-1" d="M25.21,18.31a14.28,14.28,0,0,0-9.65,0,2.91,2.91,0,0,1-3.91-2.73V5.82A5.83,5.83,0,0,1,17.47,0h5.82a5.83,5.83,0,0,1,5.83,5.82v9.76A2.91,2.91,0,0,1,25.21,18.31Z"/><path class="cls-2" d="M23.29,0H20.38V17.47a14.11,14.11,0,0,1,4.83.84,2.91,2.91,0,0,0,3.91-2.73V5.82A5.83,5.83,0,0,0,23.29,0Z"/><path class="cls-3" d="M32,87.36H8.74A8.75,8.75,0,0,1,0,78.62V32A20.39,20.39,0,0,1,27.2,12.83,20.22,20.22,0,0,1,40.77,32v46.6A8.75,8.75,0,0,1,32,87.36Z"/><path class="cls-1" d="M27.2,12.83a20,20,0,0,0-6.82-1.18V87.36H32a8.75,8.75,0,0,0,8.74-8.74V32A20.22,20.22,0,0,0,27.2,12.83Z"/><path class="cls-1" d="M40.77,55.33H0V32H40.77Z"/><rect class="cls-2" x="20.38" y="32.03" width="20.38" height="23.29"/></g></g></svg>