<svg xmlns="http://www.w3.org/2000/svg" viewBox="0 0 8.44 15.61"><defs><style>.cls-1{fill:#fff;}</style></defs><g id="Layer_2" data-name="Layer 2"><g id="Layer_1-2" data-name="Layer 1"><path class="cls-1" d="M8.12,0h-2A3.56,3.56,0,0,0,2.35,3.84V5.61h-2A.32.32,0,0,0,0,5.93V8.5a.32.32,0,0,0,.32.32h2v6.47a.32.32,0,0,0,.32.32H5.33a.32.32,0,0,0,.32-.32V8.82H8a.32.32,0,0,0,.32-.32V5.93a.31.31,0,0,0-.09-.22A.32.32,0,0,0,8,5.61H5.65V4.11C5.65,3.39,5.82,3,6.76,3H8.12a.32.32,0,0,0,.32-.32V.32A.32.32,0,0,0,8.12,0Z"/></g></g></svg>