<svg xmlns="http://www.w3.org/2000/svg" viewBox="0 0 25.34 25.34"><defs><style>.cls-1{fill:#818181;}.cls-2{fill:#fff;}</style></defs><g id="Layer_2" data-name="Layer 2"><g id="Layer_1-2" data-name="Layer 1"><circle class="cls-1" cx="12.67" cy="12.67" r="12.67"/><path class="cls-2" d="M15.7,6.6H14.13a2.76,2.76,0,0,0-2.91,3V11H9.63a.25.25,0,0,0-.24.25v2a.24.24,0,0,0,.24.24h1.59v5a.25.25,0,0,0,.24.25h2.07a.25.25,0,0,0,.25-.25v-5h1.85a.25.25,0,0,0,.25-.24v-2a.28.28,0,0,0-.25-.25H13.78V9.8c0-.56.13-.85.86-.85H15.7A.25.25,0,0,0,16,8.7V6.85A.25.25,0,0,0,15.7,6.6Z"/></g></g></svg>