<svg xmlns="http://www.w3.org/2000/svg" viewBox="0 0 15.01 15.01"><defs><style>.cls-1{fill:#fff;}</style></defs><g id="Layer_2" data-name="Layer 2"><g id="Layer_1-2" data-name="Layer 1"><path class="cls-1" d="M10.87,0H4.14A4.15,4.15,0,0,0,0,4.14v6.73A4.15,4.15,0,0,0,4.14,15h6.73A4.15,4.15,0,0,0,15,10.87V4.14A4.15,4.15,0,0,0,10.87,0Zm2.81,10.87a2.81,2.81,0,0,1-2.81,2.81H4.14a2.81,2.81,0,0,1-2.81-2.81V4.14A2.81,2.81,0,0,1,4.14,1.33h6.73a2.81,2.81,0,0,1,2.81,2.81v6.73Z"/><path class="cls-1" d="M7.5,3.64a3.87,3.87,0,1,0,3.87,3.87A3.86,3.86,0,0,0,7.5,3.64Zm0,6.4A2.54,2.54,0,1,1,10,7.5,2.54,2.54,0,0,1,7.5,10Z"/><path class="cls-1" d="M11.53,2.51a1,1,0,0,0-1,1,1,1,0,0,0,1,1,1,1,0,0,0,.7-.28,1,1,0,0,0,0-1.39A1,1,0,0,0,11.53,2.51Z"/></g></g></svg>