<svg xmlns="http://www.w3.org/2000/svg" viewBox="0 0 25.34 25.34"><defs><style>.cls-1{fill:#818181;}.cls-2{fill:#fff;}</style></defs><g id="Layer_2" data-name="Layer 2"><g id="Layer_1-2" data-name="Layer 1"><circle class="cls-1" cx="12.67" cy="12.67" r="12.67"/><path class="cls-2" d="M15.28,6.83H10.05a3.23,3.23,0,0,0-3.22,3.22v5.23a3.22,3.22,0,0,0,3.22,3.22h5.23a3.22,3.22,0,0,0,3.22-3.22V10.05A3.22,3.22,0,0,0,15.28,6.83Zm2.19,8.45a2.19,2.19,0,0,1-2.19,2.19H10.05a2.19,2.19,0,0,1-2.18-2.19V10.05a2.19,2.19,0,0,1,2.18-2.18h5.23a2.19,2.19,0,0,1,2.19,2.18v5.23Z"/><path class="cls-2" d="M12.67,9.66a3,3,0,1,0,3,3A3,3,0,0,0,12.67,9.66Zm0,5a2,2,0,1,1,2-2A2,2,0,0,1,12.67,14.64Z"/><path class="cls-2" d="M15.8,8.78a.79.79,0,0,0-.76.76.74.74,0,0,0,.23.54.75.75,0,0,0,.53.22.75.75,0,0,0,.76-.76A.75.75,0,0,0,16.34,9,.74.74,0,0,0,15.8,8.78Z"/></g></g></svg>