<svg xmlns="http://www.w3.org/2000/svg" viewBox="0 0 25.34 25.34"><defs><style>.cls-1{fill:#818181;}.cls-2{fill:#fff;}</style></defs><g id="Layer_2" data-name="Layer 2"><g id="Layer_1-2" data-name="Layer 1"><circle class="cls-1" cx="12.67" cy="12.67" r="12.67"/><rect class="cls-2" x="6.71" y="10.63" width="2.62" height="7.88"/><path class="cls-2" d="M18,11.34a2.83,2.83,0,0,0-2.19-.9,2.9,2.9,0,0,0-.91.13,2,2,0,0,0-.69.34,3.87,3.87,0,0,0-.45.41,3.65,3.65,0,0,0-.31.43V10.63H10.78V11c0,.25,0,1,0,2.35s0,3,0,5.14H13.4V14.11a1.91,1.91,0,0,1,.09-.65,1.77,1.77,0,0,1,.5-.68,1.32,1.32,0,0,1,.84-.27,1.15,1.15,0,0,1,1,.47,2.35,2.35,0,0,1,.32,1.31V18.5h2.61V14A3.82,3.82,0,0,0,18,11.34Z"/><path class="cls-2" d="M8,6.83A1.48,1.48,0,0,0,7,7.22,1.36,1.36,0,0,0,7,9.16a1.42,1.42,0,0,0,1,.39H8A1.48,1.48,0,0,0,9.1,9.16a1.21,1.21,0,0,0,.4-1,1.32,1.32,0,0,0-.4-1A1.46,1.46,0,0,0,8,6.83Z"/></g></g></svg>