<svg xmlns="http://www.w3.org/2000/svg" viewBox="0 0 15.7 15.01"><defs><style>.cls-1{fill:#8eff54;}</style></defs><g id="Layer_2" data-name="Layer 2"><g id="Layer_1-2" data-name="Layer 1"><rect class="cls-1" x="0.19" y="4.88" width="3.37" height="10.13"/><path class="cls-1" d="M14.64,5.8a3.64,3.64,0,0,0-2.81-1.16,3.9,3.9,0,0,0-1.17.16,2.57,2.57,0,0,0-.89.45,3.89,3.89,0,0,0-.58.53,4.21,4.21,0,0,0-.4.54V4.88H5.43v.49c0,.33,0,1.33,0,3s0,3.9,0,6.62H8.79V9.36a2.31,2.31,0,0,1,.12-.83,2.16,2.16,0,0,1,.64-.88,1.69,1.69,0,0,1,1.08-.35,1.46,1.46,0,0,1,1.3.61,3,3,0,0,1,.41,1.68V15H15.7V9.2A4.88,4.88,0,0,0,14.64,5.8Z"/><path class="cls-1" d="M1.9,0A1.92,1.92,0,0,0,.53.5,1.64,1.64,0,0,0,0,1.75,1.69,1.69,0,0,0,.51,3a1.86,1.86,0,0,0,1.35.5h0A2,2,0,0,0,3.27,3a1.62,1.62,0,0,0,.51-1.25A1.67,1.67,0,0,0,3.26.5,1.87,1.87,0,0,0,1.9,0Z"/></g></g></svg>