<svg xmlns="http://www.w3.org/2000/svg" viewBox="0 0 55 30.05"><defs><style>.cls-1{fill:#fff;}</style></defs><g id="Layer_2" data-name="Layer 2"><g id="Layer_1-2" data-name="Layer 1"><path class="cls-1" d="M0,.31H4.23V18.6H0Z"/><path class="cls-1" d="M26.14,9.17H30v7.41a12.58,12.58,0,0,1-7.39,2.33c-5.75,0-10-3.94-10-9.46S16.87,0,22.69,0a9.77,9.77,0,0,1,7.66,3.16L27.63,5.67A6.19,6.19,0,0,0,22.9,3.6a5.63,5.63,0,0,0-6,5.85,5.65,5.65,0,0,0,5.93,5.86,6.66,6.66,0,0,0,3.29-.79Z"/><path class="cls-1" d="M55,7c0,4.07-3.06,6.61-7.94,6.61H43.38v5H39.15V.31h7.91C51.94.31,55,2.85,55,7ZM50.72,7c0-2-1.31-3.19-3.9-3.19H43.38v6.35h3.44C49.41,10.11,50.72,8.93,50.72,7Z"/><path class="cls-1" d="M1.64,24.16V26H4.92v1.32H1.64v2.58H0V22.84H5.36v1.32Z"/><path class="cls-1" d="M8.5,22.84h1.64v7.09H8.5Z"/><path class="cls-1" d="M15.32,24.18H13.05V22.84h6.18v1.34H17v5.75H15.32Z"/><path class="cls-1" d="M28.64,22.84v7.09H27.29l-3.53-4.31v4.31H22.14V22.84h1.35L27,27.14v-4.3Z"/><path class="cls-1" d="M37.84,28.61v1.32H32.35V22.84h5.36v1.32H34V25.7h3.29V27H34v1.64Z"/><path class="cls-1" d="M40.61,29.23,41.17,28a4.22,4.22,0,0,0,2.34.73c1,0,1.37-.32,1.37-.76,0-1.32-4.12-.41-4.12-3,0-1.21,1-2.21,3-2.21a4.82,4.82,0,0,1,2.47.62l-.51,1.25a4.08,4.08,0,0,0-2-.56c-1,0-1.34.37-1.34.81,0,1.31,4.12.41,4.12,3,0,1.19-1,2.2-3,2.2A5.05,5.05,0,0,1,40.61,29.23Z"/><path class="cls-1" d="M49.1,29.23,49.66,28a4.22,4.22,0,0,0,2.34.73c1,0,1.37-.32,1.37-.76,0-1.32-4.12-.41-4.12-3,0-1.21,1-2.21,3-2.21a4.82,4.82,0,0,1,2.47.62l-.51,1.25a4.08,4.08,0,0,0-2-.56c-1,0-1.34.37-1.34.81,0,1.31,4.12.41,4.12,3,0,1.19-1,2.2-3,2.2A5.05,5.05,0,0,1,49.1,29.23Z"/></g></g></svg>