<svg xmlns="http://www.w3.org/2000/svg" viewBox="0 0 64.06 87.36"><defs><style>.cls-1{fill:#886dc4;}.cls-2{fill:#8004bf;}.cls-3{fill:#fff;}.cls-4{fill:#cbcbcb;}.cls-5{fill:#640787;}</style></defs><g id="Layer_2" data-name="Layer 2"><g id="Layer_1-2" data-name="Layer 1"><path class="cls-1" d="M55.33,87.36H8.74A8.75,8.75,0,0,1,0,78.62V26.21a8.75,8.75,0,0,1,8.74-8.74h8.73a2.91,2.91,0,0,1,2.91,2.91v2.91h23.3V20.38a2.91,2.91,0,0,1,2.91-2.91h8.74a8.75,8.75,0,0,1,8.73,8.74V78.62A8.75,8.75,0,0,1,55.33,87.36Z"/><path class="cls-2" d="M55.33,17.47H46.59a2.91,2.91,0,0,0-2.91,2.91v2.91H32V87.36h23.3a8.75,8.75,0,0,0,8.73-8.74V26.21A8.75,8.75,0,0,0,55.33,17.47Z"/><path class="cls-3" d="M17.47,43.68H11.65a2.92,2.92,0,0,1,0-5.83h5.82a2.92,2.92,0,0,1,0,5.83Z"/><path class="cls-3" d="M52.41,43.68H29.12a2.92,2.92,0,0,1,0-5.83H52.41a2.92,2.92,0,1,1,0,5.83Z"/><path class="cls-3" d="M17.47,58.24H11.65a2.92,2.92,0,0,1,0-5.83h5.82a2.92,2.92,0,0,1,0,5.83Z"/><path class="cls-3" d="M52.41,58.24H29.12a2.92,2.92,0,0,1,0-5.83H52.41a2.92,2.92,0,1,1,0,5.83Z"/><path class="cls-3" d="M17.47,72.8H11.65a2.92,2.92,0,0,1,0-5.83h5.82a2.92,2.92,0,0,1,0,5.83Z"/><path class="cls-3" d="M52.41,72.8H29.12a2.92,2.92,0,0,1,0-5.83H52.41a2.92,2.92,0,1,1,0,5.83Z"/><path class="cls-4" d="M52.41,37.85H32v5.83H52.41a2.92,2.92,0,1,0,0-5.83Z"/><path class="cls-4" d="M52.41,52.41H32v5.83H52.41a2.92,2.92,0,1,0,0-5.83Z"/><path class="cls-4" d="M52.41,67H32V72.8H52.41a2.92,2.92,0,1,0,0-5.83Z"/><path class="cls-2" d="M46.59,29.12H17.47a2.91,2.91,0,0,1-2.91-2.91V14.56a2.91,2.91,0,0,1,2.91-2.91h2.91a11.65,11.65,0,1,1,23.3,0h2.91a2.91,2.91,0,0,1,2.91,2.91V26.21A2.91,2.91,0,0,1,46.59,29.12Z"/><path class="cls-5" d="M46.59,11.65H43.68A11.66,11.66,0,0,0,32,0V29.12H46.59a2.91,2.91,0,0,0,2.91-2.91V14.56A2.91,2.91,0,0,0,46.59,11.65Z"/></g></g></svg>