<svg xmlns="http://www.w3.org/2000/svg" viewBox="0 0 69.88 64.06"><defs><style>.cls-1{fill:#886dc4;}.cls-2{fill:#8004bf;}.cls-3{fill:#fff;}.cls-4{fill:#640787;}</style></defs><g id="Layer_2" data-name="Layer 2"><g id="Layer_1-2" data-name="Layer 1"><path class="cls-1" d="M24.91-2.91H45a22,22,0,0,1,22,22V57.44A9.53,9.53,0,0,1,57.44,67h-45a9.53,9.53,0,0,1-9.53-9.53V19.09A22,22,0,0,1,24.91-2.91Z" transform="translate(66.97 -2.91) rotate(90)"/><path class="cls-2" d="M60.36,0H34.94V64.06H60.36a9.53,9.53,0,0,0,9.52-9.53v-45A9.53,9.53,0,0,0,60.36,0Z"/><circle class="cls-3" cx="34.94" cy="32.03" r="16.58"/><path class="cls-4" d="M38.12,31.21l-5-3.44a1,1,0,0,0-1.57.82v6.88a1,1,0,0,0,1.57.83l5-3.45A1,1,0,0,0,38.12,31.21Z"/></g></g></svg>